<svg xmlns="http://www.w3.org/2000/svg" viewBox="0 0 1169.14 908.54"><path d="M1063.19,971.49q-75.48,38.1-153.06,12.47-82.43-26.31-142-112.2-31.86-45.71-54.71-106l-22.17-58.87H527.8l-36.71,87.26q-3.46,9-3.46,14.55a35,35,0,0,0,2.43,12.12q2.42,6.57,10.39,11.78a31.64,31.64,0,0,0,17.65,5.19h5.55v6.93H375.43v-6.93h6.22q15.94,0,31.52-9.35t26-28.05L593.6,447.88q-27-61-57.48-83.81-25.64-19.4-48.83-19.39A132.13,132.13,0,0,0,444,351.6l-1.38-6.92q49.86-25.62,95.58-25.63,56.79,0,101.81,44.33Q684.34,407,718.27,489.43l100.43,248Q875.51,878,935.06,930.63q24.24,21.48,49.86,29.78t43.3,8.31a140.82,140.82,0,0,0,34.28-4.15l.69,6.92ZM539.58,677.14H680.87L632.39,549q-3.48-9.69-9.7-26.67t-8.32-23.89l-74.79,178.7ZM920.52,837.83A42,42,0,0,0,951.33,825a44.6,44.6,0,0,0,13.51-30.83V410.47a44.57,44.57,0,0,0-13.51-30.81,42,42,0,0,0-30.81-12.82h-9v-6.92h210.55l-.69,6.92h-8.3a43.22,43.22,0,0,0-31.18,12.82q-13.16,12.81-13.16,30.81V815h90.74q50.55,0,84.85-29.09t50.9-82.42h6.92l-31.86,141.29H911.51v-6.92Zm422.49,0A42,42,0,0,0,1373.83,825a44.6,44.6,0,0,0,13.51-30.83V409.78a43.36,43.36,0,0,0-13.51-30.47A42.61,42.61,0,0,0,1343,366.84h-9v-6.92h210.55l-.69,6.92h-8.32a43.81,43.81,0,0,0-31.16,12.47,40.38,40.38,0,0,0-13.16,30.47v384.4q0,18,13.16,30.83a43.2,43.2,0,0,0,31.17,12.82h8.31l.69,6.92H1334v-6.92Z" transform="translate(-375.43 -85.73)" fill="#d2ae6d"/><path d="M440.25,85.73H1544.57v187H440.25Zm48.42,42.92V235.49h45.82q28.2,0,42.84-13.65T592,182q0-25.75-14.82-39.54t-42.66-13.79Zm-28.75,125V250.4c2.58-.63,4.25-1.44,5.06-2.48s1.18-2.8,1.18-5.38V122.47c0-2.63-.41-4.48-1.26-5.57s-2.5-1.89-5-2.62v-3H526.4q25.54,0,39.68,3.71a63.54,63.54,0,0,1,24.54,12.34,57.76,57.76,0,0,1,16.9,23.27,82.41,82.41,0,0,1,5.87,31.68,83.16,83.16,0,0,1-5.87,31.91,59,59,0,0,1-16.9,23.41A63.66,63.66,0,0,1,566.08,250q-14.1,3.74-39.68,3.71Zm264.43,2.44q-35,0-57.77-21t-22.77-52.78q0-31.66,22.64-52.57t57.9-20.92q35.25,0,57.89,20.92t22.64,52.57q0,31.78-22.78,52.78t-57.75,21Zm-57.5-73.58q0,24.4,15.79,39.23t42,14.82q25.56,0,41.26-14.95t15.68-39.1q0-23.93-15.78-38.91t-41.43-15q-25.83,0-41.68,15t-15.82,38.91Zm301-30a9.26,9.26,0,0,0,.59-1.94,10.33,10.33,0,0,0,.23-1.9,6,6,0,0,0-1.67-4.07c-1.09-1.31-3.76-3.25-8-5.92a116.55,116.55,0,0,0-21.2-8,81,81,0,0,0-20.16-2.58q-26.71,0-43,15.06c-10.89,10-16.32,23.13-16.32,39.35s5.52,29.34,16.49,39.23,25.46,14.82,43.39,14.82a70.78,70.78,0,0,0,34.85-9.3c11.12-6.24,16.67-11.12,16.67-14.74a7.17,7.17,0,0,0-.27-1.85,21.17,21.17,0,0,0-1-3l2.48-2.27,22.19,27.66-2.62,1.8a31.75,31.75,0,0,0-3.21-1.75,5.56,5.56,0,0,0-2.35-.59c-.64,0-2.35,1-5.2,3.12s-5.33,3.75-7.54,5.1a106.73,106.73,0,0,1-26.4,11.58,105,105,0,0,1-28.65,3.79q-36.2,0-59-20.79t-22.82-53q0-31.66,22.64-52.57t57.85-20.92q26.35,0,56,13.38c4.2,1.94,6.78,2.89,7.68,2.89a4.23,4.23,0,0,0,2.23-.72,21.73,21.73,0,0,0,3.2-2.71l2.76,1.58-17,30.86-2.8-1.58ZM1062,253.66V250.4c2.57-.63,4.24-1.44,5.06-2.43s1.17-2.8,1.17-5.39V129.19h-45.73c-2.58,0-4.39.42-5.38,1.18s-1.85,2.48-2.57,5.06h-3V104.8h3.12c.77,2.66,1.72,4.38,2.76,5.23s2.85,1.27,5.28,1.27h114.88c2.45,0,4.21-.41,5.3-1.27s2-2.57,2.89-5.23h3v30.63h-3c-.73-2.58-1.54-4.25-2.54-5.06s-2.75-1.18-5.42-1.18H1091V242.58c0,2.59.41,4.34,1.18,5.39s2.48,1.8,5.06,2.43v3.26Zm194.73,2.44q-35,0-57.75-21t-22.78-52.78q0-31.66,22.65-52.57t57.88-20.92q35.25,0,57.89,20.92t22.65,52.57q0,31.78-22.78,52.78t-57.76,21Zm-57.48-73.58q0,24.4,15.77,39.23t42,14.82q25.56,0,41.26-14.95t15.69-39.1q0-23.93-15.77-38.91t-41.45-15q-25.83,0-41.66,15t-15.82,38.91Zm256.2-71.22q27.93,0,43.25,10.85c10.26,7.27,15.36,17.35,15.36,30.37,0,9.67-2.84,17.85-8.58,24.49s-13.74,11-24,13.24c5.1,7.95,11.52,18.21,19.16,30.87q17.89,29.28,23,29.28h1.18v3.26h-38V250.4H1488a4.63,4.63,0,0,0,3-.86,2.9,2.9,0,0,0,1-2.3,3.89,3.89,0,0,0-.77-1.85,6.1,6.1,0,0,1-.54-.81L1458,192.11h-49.4v50.47c0,2.59.46,4.34,1.32,5.39s2.62,1.85,5.19,2.57v3.12h-35.25v-3.12c2.49-.72,4.16-1.54,5-2.54s1.27-2.75,1.27-5.42V122.51c0-2.67-.41-4.52-1.27-5.56s-2.48-1.94-5-2.67v-3Zm-6.2,19.8h-40.67v41.48h42q21.83,0,32-5.1c6.73-3.4,10.12-8.73,10.12-16q0-10.71-10-15.51c-6.65-3.21-17.81-4.83-33.41-4.83Z" transform="translate(-375.43 -85.73)" fill="#d2ae6d" fill-rule="evenodd"/></svg>